<?xml version="1.0" encoding="utf-8"?>
<!-- Generator: Adobe Illustrator 18.1.1, SVG Export Plug-In . SVG Version: 6.00 Build 0)  -->
<!DOCTYPE svg PUBLIC "-//W3C//DTD SVG 1.1//EN" "http://www.w3.org/Graphics/SVG/1.1/DTD/svg11.dtd">
<svg version="1.1" id="Layer_1" xmlns="http://www.w3.org/2000/svg" xmlns:xlink="http://www.w3.org/1999/xlink" x="0px" y="0px"
	 viewBox="0 0 35 22" enable-background="new 0 0 35 22" xml:space="preserve">
<g>
	<g>
		<g>
			<g>
				<path fill="#CB282A" d="M11,3.3c0,0,9.7-6.4,9.8,0.6c0,0,6.3-4.6,9.1-1.3l0.7,3.6c0,0-1.3-3.7-9.2,1.2c0,0,0.3-6.8-9.7-0.4
					L11,3.3z"/>
			</g>
			<g>
				<path fill="#CB282A" d="M12.5,10.4c0,0,9.6-6.3,9.7,0.6c0,0,6.3-4.6,9.2-1.3l0.7,3.6c0,0-1.3-3.7-9.2,1.2c0,0,0.5-6.8-9.6-0.4
					L12.5,10.4z"/>
			</g>
			<g>
				<path fill="#CB282A" d="M13.7,17.2c0,0,9.6-6.3,9.7,0.6c0,0,6.3-4.6,9.2-1.3l0.7,3.6c0,0-1.3-3.7-9.2,1.2c0,0,0.5-6.8-9.6-0.4
					L13.7,17.2z"/>
			</g>
			<path fill="#CB282A" d="M4.5,17.8c0,0,6.3-4.6,9.2-1.3l0.7,3.6c0,0-1.3-3.7-9.2,1.2"/>
		</g>
		<g>
			<g>
				<path fill="#CB282A" d="M11,3.3c0,0,9.7-6.4,9.8,0.6c0,0,6.3-4.6,9.1-1.3l0.7,3.6c0,0-1.3-3.7-9.2,1.2c0,0,0.3-6.8-9.7-0.4
					L11,3.3z"/>
			</g>
			<g>
				<path fill="#CB282A" d="M12.5,10.4c0,0,9.6-6.3,9.7,0.6c0,0,6.3-4.6,9.2-1.3l0.7,3.6c0,0-1.3-3.7-9.2,1.2c0,0,0.5-6.8-9.6-0.4
					L12.5,10.4z"/>
			</g>
			<g>
				<path fill="#CB282A" d="M13.7,17.2c0,0,9.6-6.3,9.7,0.6c0,0,6.3-4.6,9.2-1.3l0.7,3.6c0,0-1.3-3.7-9.2,1.2c0,0,0.5-6.8-9.6-0.4
					L13.7,17.2z"/>
			</g>
			<path fill="#CB282A" d="M4.5,17.8c0,0,6.3-4.6,9.2-1.3l0.7,3.6c0,0-1.3-3.7-9.2,1.2"/>
		</g>
	</g>
	<path fill="#13567E" d="M11.2,1.8C8.3-1.4,1.9,3.1,1.9,3.1l2.1,10.8c7.9-4.7,9.1-1.3,9.1-1.3L11.2,1.8z"/>
	<polygon fill="#FFFFFF" points="11.3,7.3 10.4,7.5 10.5,8.2 9.9,7.7 9.1,7.9 9.6,7.4 9.1,6.9 9.9,7.1 10.4,6.5 10.4,7.2 	"/>
	<polygon fill="#FFFFFF" points="9.7,4.9 9.7,5.6 9.2,5.1 8.4,5.3 8.9,4.8 8.3,4.3 9.2,4.5 9.7,3.9 9.7,4.6 10.6,4.7 	"/>
	<polygon fill="#FFFFFF" points="8.5,1.9 9,1.4 9,2 9.9,2.1 9,2.4 9.1,3 8.5,2.5 7.7,2.8 8.2,2.2 7.7,1.8 	"/>
	<polygon fill="#FFFFFF" points="6.3,4 6.8,3.4 6.8,4 7.7,4.2 6.8,4.4 6.9,5 6.3,4.5 5.5,4.8 6,4.3 5.5,3.8 	"/>
	<polygon fill="#FFFFFF" points="2.7,3 3.5,3.2 4,2.7 4,3.3 4.9,3.4 4,3.7 4,4.3 3.5,3.8 2.7,4.1 3.2,3.5 	"/>
	<polygon fill="#FFFFFF" points="3.4,6.6 3.9,6.1 3.3,5.6 4.2,5.8 4.7,5.2 4.7,5.9 5.6,6 4.7,6.2 4.7,6.9 4.2,6.3 	"/>
	<polygon fill="#FFFFFF" points="4,8.2 4.9,8.4 5.4,7.8 5.4,8.5 6.3,8.6 5.4,8.8 5.4,9.5 4.9,8.9 4.1,9.2 4.6,8.7 	"/>
	<polygon fill="#FFFFFF" points="6.1,12.1 5.6,11.6 4.8,11.8 5.3,11.3 4.8,10.8 5.6,11 6.1,10.4 6.1,11.1 7,11.2 6.1,11.4 	"/>
	<polygon fill="#FFFFFF" points="6.2,7.4 6.7,6.8 6.2,6.4 7,6.5 7.5,6 7.5,6.6 8.4,6.8 7.5,7 7.6,7.6 7,7.1 	"/>
	<polygon fill="#FFFFFF" points="8.5,10.2 8,9.7 7.1,9.9 7.7,9.4 7.1,8.9 7.9,9.1 8.4,8.5 8.4,9.2 9.3,9.3 8.4,9.5 	"/>
	<polygon fill="#FFFFFF" points="11.2,10.8 10.6,10.3 9.8,10.5 10.3,10 9.8,9.5 10.6,9.7 11.1,9.1 11.1,9.8 12,9.9 11.1,10.1 	"/>
</g>
</svg>
