<?xml version="1.0" encoding="utf-8"?>
<!-- Generator: Adobe Illustrator 18.1.0, SVG Export Plug-In . SVG Version: 6.00 Build 0)  -->
<svg version="1.1" id="Layer_1" xmlns="http://www.w3.org/2000/svg" xmlns:xlink="http://www.w3.org/1999/xlink" x="0px" y="0px"
	 viewBox="200 -200 500 500" enable-background="new 200 -200 500 500" xml:space="preserve">
<filter  height="300%" width="300%" y="-100%" id="uil-ring-shadow" x="-100%">
	<feOffset  result="offOut" in="SourceGraphic" dy="0" dx="0"></feOffset>
	<feGaussianBlur  result="blurOut" stdDeviation="0" in="offOut"></feGaussianBlur>
	<feBlend  in2="blurOut" in="SourceGraphic" mode="normal"></feBlend>
</filter>
<g filter="url(#uil-ring-shadow)">
	<path fill="#FFFFFF" d="M250,50c0,0,0,2.5,0.5,7c0,2.5,0.5,5,1,8.5c0,1.5,0.5,3.5,0.5,5.5c0.5,2,0.5,4,1,6c1,4,1.5,9,2.5,14
		c1.5,5,3,10.5,4.5,16c1.5,5.5,4.5,11.5,7,17.5c2.5,6,6,12,9,18.5c1.5,3,4,6,6,9.5c2,3,4,6.5,6.5,9.5c5,6,9.5,13,15.5,18.5
		c11,12.5,25,23.5,39.5,33.5c15,10,32.5,17,50.5,23c18,5.5,37.5,7.5,56,8c20-0.5,38.5-3,56.5-8c18-6,35-13,50-23s29-21,39.5-33.5
		c6-6,10.5-12.5,15.5-18.5c2.5-3,4.5-6.5,6.5-9.5c2-3,4-6.5,6-9.5c3-6.5,6.5-12.5,9-18.5c2.5-6,5-12,7-17.5c1.5-5.5,3-11,4.5-16
		c1-5,2-9.5,2.5-14c0.5-2,0.5-4,1-6c0-2,0.5-3.5,0.5-5.5c0.5-3.5,0.5-6,1-8.5c0.5-4.5,0.5-7,0.5-7s0,2.5,0,7c0,2.5,0,5,0,8.5
		c0,1.5,0,3.5,0,5.5c0,2-0.5,4-0.5,6c-0.5,4.5-1,9-2,14s-2.5,10.5-3.5,16.5c-1.5,6-4,12-6,18.5c-1,3.5-2.5,6.5-4,9.5
		c-1.5,3.5-3,6.5-4.5,10c-1.5,3.5-3.5,6.5-5.5,10c-2,3.5-3.5,7-6,10c-5,6.5-9.5,13.5-15.5,20c-11,13.5-25,25-40.5,35.5
		c-4,2.5-8,5-12,7.5c-4,2.5-8.5,4.5-13,6.5l-7,3.5l-7,2.5c-4.5,1.5-9,3.5-14,5c-19,5.5-39.5,8.5-59,9l-15-1c-5,0-10-1-15-1.5l-7.5-1
		L409,251l-3.5-1c-5-1.5-9.5-2.5-14.5-3.5c-4.5-1.5-9.5-3.5-14-5l-7-3l-6.5-3c-4.5-2-9-4-13-6.5s-8-5-12-7.5
		C323,211,309,199,298,186c-6-6-10.5-13.5-15.5-20c-2.5-3-4-7-6-10c-2-3.5-4-6.5-5.5-10s-3-6.5-4.5-10s-3-6.5-4-9.5
		c-2-6.5-4.5-12.5-6-18.5c-1.5-6-2.5-11.5-3.5-16.5s-1.5-10-2-14c-0.5-2-0.5-4-0.5-6s0-3.5,0-5.5c0-3.5,0-6,0-8.5
		C250,52.5,250,50,250,50z"/>
</g>
</svg>
